<svg width="289" height="75" viewBox="0 0 289 75" fill="none" xmlns="http://www.w3.org/2000/svg">
<rect y="0.173889" width="76.1994" height="74.6435" rx="37.3217" fill="#D65D38"/>
<rect x="48.3006" y="8.67389" width="59.1994" height="57.6435" rx="28.8217" stroke="#5A4AAA" stroke-opacity="0.6" stroke-width="17"/>
<path d="M153.872 33.1818C153.466 28.4915 150.031 25.8324 145.267 25.8324C140.17 25.8324 136.145 29.2301 136.145 35.5455C136.145 41.8331 140.06 45.2585 145.267 45.2585C150.807 45.2585 153.614 41.4176 153.872 38.2045L148.665 38.1676C148.406 39.7834 147.261 40.7898 145.378 40.7898C142.876 40.7898 141.426 39.017 141.426 35.5455C141.426 32.2585 142.83 30.3011 145.415 30.3011C147.391 30.3011 148.517 31.4645 148.665 33.1818H153.872ZM163.107 45.2585C167.724 45.2585 170.457 42.304 170.457 37.946C170.457 33.5881 167.724 30.6335 163.107 30.6335C158.491 30.6335 155.758 33.5881 155.758 37.946C155.758 42.304 158.491 45.2585 163.107 45.2585ZM163.144 41.4915C161.778 41.4915 160.965 40.1342 160.965 37.9091C160.965 35.6839 161.778 34.3267 163.144 34.3267C164.437 34.3267 165.249 35.6839 165.249 37.9091C165.249 40.1342 164.437 41.4915 163.144 41.4915ZM172.525 45H177.622V36.7273C177.622 35.4901 178.268 34.733 179.32 34.733C180.373 34.733 181.056 35.4901 181.056 36.7273V45H185.931V36.7273C185.931 35.4901 186.578 34.733 187.63 34.733C188.683 34.733 189.366 35.4901 189.366 36.7273V45H194.463V35.4347C194.463 32.5263 192.597 30.6335 189.883 30.6335C187.778 30.6335 186.079 31.7784 185.599 33.5142H185.451C185.156 31.7784 183.568 30.6335 181.573 30.6335C179.607 30.6335 178.102 31.7415 177.511 33.5142H177.363V30.8182H172.525V45ZM206.172 38.7955C206.181 40.1989 205.369 41.0483 204.104 41.0483C202.821 41.0483 202.082 40.1989 202.073 38.7955V30.8182H196.976V39.8665C196.985 42.9688 198.943 45.1847 201.925 45.1847C204.039 45.1847 205.664 44.1136 206.283 42.304H206.431V45H211.269V30.8182H206.172V38.7955ZM218.958 37.0227C218.967 35.6193 219.761 34.7699 221.026 34.7699C222.309 34.7699 223.066 35.6193 223.057 37.0227V45H228.154V35.9517C228.163 32.8679 226.215 30.6335 223.205 30.6335C221.118 30.6335 219.465 31.723 218.847 33.5142H218.699V30.8182H213.861V45H218.958V37.0227ZM230.67 45H235.766V30.8182H230.67V45ZM233.218 29.3409C234.603 29.3409 235.729 28.2976 235.729 27.0142C235.729 25.7308 234.603 24.6875 233.218 24.6875C231.833 24.6875 230.706 25.7308 230.706 27.0142C230.706 28.2976 231.833 29.3409 233.218 29.3409ZM243.496 45.1847C245.491 45.1847 246.857 44.1136 247.448 42.6733H247.559V45H252.619V26.0909H247.522V33.2926H247.448C246.894 31.8523 245.565 30.6335 243.46 30.6335C240.653 30.6335 237.92 32.7756 237.92 37.9091C237.92 42.821 240.468 45.1847 243.496 45.1847ZM245.38 41.2699C243.977 41.2699 243.164 40.0142 243.164 37.9091C243.164 35.804 243.977 34.5483 245.38 34.5483C246.783 34.5483 247.633 35.804 247.633 37.9091C247.633 39.9773 246.783 41.2699 245.38 41.2699ZM259.072 45.2216C260.919 45.2216 262.313 44.5938 263.172 43.0057H263.283V45H268.047V35.2869C268.047 32.6648 265.563 30.6335 261.51 30.6335C257.272 30.6335 255.185 32.8494 255.01 35.4347H259.7C259.82 34.5575 260.467 34.142 261.436 34.142C262.322 34.142 262.95 34.5483 262.95 35.2869V35.3239C262.95 36.1456 262.045 36.4041 259.663 36.5795C256.737 36.7919 254.456 37.9737 254.456 41.0852C254.456 43.9105 256.358 45.2216 259.072 45.2216ZM260.734 42.0085C259.866 42.0085 259.257 41.5838 259.257 40.7898C259.257 40.0604 259.774 39.4972 260.956 39.3125C261.768 39.1832 262.452 39.017 262.987 38.7955V39.9773C262.987 41.2699 261.888 42.0085 260.734 42.0085ZM284.267 30.8182H278.912L276.622 40.1989H276.474L274.184 30.8182H268.829L273.594 45H279.503L284.267 30.8182Z" fill="black"/>
</svg>
